<svg width="501" height="501" viewBox="0 0 501 501" fill="none" xmlns="http://www.w3.org/2000/svg">
<path d="M498.347 135.253C494.934 131.84 489.814 131.84 486.4 135.253C484.034 137.619 481.683 139.811 479.339 141.845L358.577 21.083C360.386 19.043 362.311 16.995 364.374 14.933C367.787 11.52 367.787 6.39999 364.374 2.98599C360.961 -0.427011 355.841 -0.427011 352.427 2.98599C330.373 25.456 321.309 46.914 319.588 71.214C319.104 72.638 319.025 74.142 319.355 75.592C318.61 96.833 323.067 120.355 329.122 148.629C305.402 144.311 283.079 142.985 262.811 144.487C260.49 143.379 257.999 143.597 255.746 145.139C228.348 148.138 205.046 156.525 187.591 169.865C186.415 170.283 185.297 170.97 184.321 171.946C183.804 172.463 183.375 173.023 183.014 173.607C181.407 175.003 179.837 176.43 178.347 177.92C161.137 195.13 153.529 216.233 152.42 242.5C151.779 244.213 151.729 246.057 152.283 247.789C152.088 268.009 155.431 291.18 161.045 317.869C88.569 303.675 40.573 314.84 2.55999 352.853C-0.853006 356.266 -0.853006 361.386 2.55999 364.8C4.26699 366.507 5.97299 367.36 8.53299 367.36C11.093 367.36 12.8 366.507 13.653 365.653C18.067 361.239 22.596 357.255 27.272 353.672L146.883 473.282C143.497 477.652 139.776 481.877 135.68 485.973C132.267 489.386 132.267 494.506 135.68 497.92C137.387 499.627 139.093 500.48 141.653 500.48C143.36 500.48 145.92 499.627 148.48 497.067C186.119 459.428 197.451 412.017 183.892 340.731C247.355 353.881 290.796 353.898 321.707 322.987C353.15 292.35 363.251 236.57 350.598 170.052C414.957 183.877 455.506 190.042 498.347 147.2C501.76 143.787 501.76 138.667 498.347 135.253ZM465.59 151.99C454.203 158.937 442.595 162.476 429.808 163.578C429.425 162.917 428.952 162.286 428.373 161.706L336.136 70.3C337.364 57.571 341.074 46.037 348.264 34.664L465.59 151.99ZM404.211 163.034C387.784 161.289 369.114 157.254 346.848 152.312C341.905 129.748 337.935 111.005 336.375 94.587L404.211 163.034ZM332.907 166.259C336.801 185.156 338.779 203.165 338.901 219.861L279.775 160.735C296.391 160.703 314.257 162.51 332.907 166.259ZM321.01 296.69L203.616 179.296C218.171 170.038 236.972 164.141 258.689 161.836L335.359 238.506C336.221 239.368 337.085 240.011 338.057 240.438C336.006 262.643 330.237 281.792 321.01 296.69ZM170.395 267.248L233.841 330.695C217.878 329.304 199.946 326.162 179.864 321.868C175.228 301.548 171.896 283.401 170.395 267.248ZM165.106 336.68C169.117 356.295 171.309 373.828 171.653 389.679L111.534 329.56C127.51 330.095 145.225 332.505 165.106 336.68ZM41.698 344.204C55.528 336.544 70.796 331.946 88.306 330.225L170.738 412.657C168.824 430.082 164.072 445.264 156.417 458.923L41.698 344.204ZM258.335 331.295L169.66 242.62C170.675 220.647 176.869 203.292 190.294 189.867L310.592 310.165C310.313 310.454 310.044 310.757 309.761 311.04C296.607 324.193 279.679 330.204 258.335 331.295Z" fill="white"/>
</svg>
