<svg width="65" height="45" viewBox="0 0 65 45" fill="none" xmlns="http://www.w3.org/2000/svg">
<path d="M64.6558 12.1493C64.213 11.8428 63.5487 11.8428 63.1058 12.1493C62.7988 12.3618 62.4938 12.5587 62.1897 12.7414L46.522 1.89452C46.7567 1.71129 47.0064 1.52734 47.2741 1.34213C47.7169 1.03557 47.7169 0.575688 47.2741 0.269041C46.8313 -0.0375157 46.167 -0.0375157 45.7241 0.269041C42.8628 2.28731 41.6868 4.21467 41.4635 6.39731C41.4007 6.52521 41.3905 6.6603 41.4333 6.79054C41.3366 8.69841 41.9149 10.8112 42.7005 13.3507C39.623 12.9629 36.7268 12.8438 34.0972 12.9787C33.7961 12.8792 33.4729 12.8988 33.1806 13.0373C29.626 13.3066 26.6028 14.06 24.3381 15.2582C24.1856 15.2957 24.0405 15.3574 23.9139 15.4451C23.8468 15.4915 23.7912 15.5418 23.7443 15.5943C23.5358 15.7197 23.3321 15.8478 23.1388 15.9817C20.906 17.5275 19.9189 19.423 19.775 21.7823C19.6919 21.9361 19.6854 22.1018 19.7573 22.2573C19.732 24.0735 20.1657 26.1547 20.8941 28.5519C11.491 27.277 5.26396 28.2799 0.332133 31.6942C-0.11067 32.0008 -0.11067 32.4607 0.332133 32.7673C0.5536 32.9206 0.774938 32.9972 1.10707 32.9972C1.43921 32.9972 1.66068 32.9206 1.77135 32.8439C2.34402 32.4475 2.93162 32.0896 3.53828 31.7678L19.0567 42.5112C18.6174 42.9037 18.1346 43.2832 17.6032 43.6511C17.1604 43.9577 17.1604 44.4175 17.6032 44.7242C17.8247 44.8775 18.046 44.9541 18.3781 44.9541C18.5996 44.9541 18.9317 44.8775 19.2639 44.6476C24.1472 41.2668 25.6174 37.0084 23.8582 30.6054C32.092 31.7866 37.728 31.7881 41.7384 29.0116C45.8179 26.2598 47.1284 21.2496 45.4868 15.275C53.8367 16.5167 59.0976 17.0705 64.6558 13.2224C65.0986 12.9158 65.0986 12.456 64.6558 12.1493ZM60.4059 13.6526C58.9285 14.2766 57.4225 14.5945 55.7635 14.6935C55.7138 14.6341 55.6524 14.5774 55.5773 14.5253L43.6104 6.31521C43.7698 5.17189 44.2511 4.1359 45.1839 3.11437L60.4059 13.6526ZM52.4425 14.6446C50.3113 14.4879 47.889 14.1254 45.0002 13.6816C44.3589 11.6549 43.8439 9.97135 43.6415 8.49668L52.4425 14.6446ZM43.1915 14.9343C43.6967 16.6316 43.9534 18.2492 43.9692 19.7488L36.2981 14.4381C38.4539 14.4352 40.7719 14.5975 43.1915 14.9343ZM41.648 26.6496L26.4172 16.1053C28.3056 15.2737 30.7449 14.744 33.5624 14.537L43.5096 21.4235C43.6215 21.501 43.7336 21.5587 43.8597 21.5971C43.5936 23.5915 42.8451 25.3115 41.648 26.6496ZM22.1071 24.0051L30.3386 29.704C28.2676 29.579 25.9411 29.2968 23.3356 28.9111C22.7342 27.086 22.3019 25.456 22.1071 24.0051ZM21.4209 30.2416C21.9413 32.0034 22.2257 33.5782 22.2703 35.0019L14.4705 29.602C16.5432 29.6501 18.8416 29.8666 21.4209 30.2416ZM5.40992 30.9174C7.20423 30.2293 9.18511 29.8163 11.4569 29.6618L22.1516 37.0658C21.9033 38.631 21.2868 39.9946 20.2936 41.2215L5.40992 30.9174ZM33.5165 29.7579L22.0118 21.7931C22.1435 19.8194 22.9471 18.2606 24.6888 17.0548L40.2964 27.86C40.2602 27.8859 40.2253 27.9131 40.1885 27.9386C38.4819 29.12 36.2857 29.6599 33.5165 29.7579Z" fill="white"/>
<path d="M2.19727 34V8.40625H8.82422C10.5234 8.40625 12.0586 8.69922 13.4297 9.28516C14.8125 9.85938 15.9902 10.668 16.9629 11.7109C17.9473 12.7422 18.7031 13.9785 19.2305 15.4199C19.7695 16.8613 20.0391 18.4434 20.0391 20.166V22.2754C20.0391 23.998 19.7695 25.5801 19.2305 27.0215C18.7031 28.4512 17.959 29.6875 16.998 30.7305C16.0371 31.7617 14.8828 32.5645 13.5352 33.1387C12.1875 33.7129 10.6992 34 9.07031 34H2.19727ZM7.17188 12.4141V30.0273H9.07031C9.99609 30.0273 10.8223 29.8516 11.5488 29.5C12.2871 29.1484 12.9082 28.6387 13.4121 27.9707C13.9277 27.3027 14.3203 26.4941 14.5898 25.5449C14.8594 24.584 14.9941 23.4941 14.9941 22.2754V20.1309C14.9941 18.9824 14.8594 17.9395 14.5898 17.002C14.332 16.0527 13.9395 15.2383 13.4121 14.5586C12.8965 13.8789 12.252 13.3516 11.4785 12.9766C10.7168 12.6016 9.83203 12.4141 8.82422 12.4141H7.17188ZM40.7988 34H35.877L28.7578 17.4941V34H23.7832V8.40625H28.7578L35.8242 24.8418L35.8418 8.40625H40.7988V34ZM58.1309 28.6562H50.4492L48.9375 34H43.7344L52.1191 8.40625H56.6016L64.8281 34H59.625L58.1309 28.6562ZM51.6621 24.4551H56.9707L54.3516 15.0332L51.6621 24.4551Z" fill="#6CCEED" fill-opacity="0.71"/>
</svg>
